<!-- Generator: Adobe Illustrator 22.1.0, SVG Export Plug-In  -->
<svg version="1.1"
	 xmlns="http://www.w3.org/2000/svg" xmlns:xlink="http://www.w3.org/1999/xlink" xmlns:a="http://ns.adobe.com/AdobeSVGViewerExtensions/3.0/"
	 x="0px" y="0px" width="289.864px" height="41.994px" viewBox="0 0 289.864 41.994"
	 style="enable-background:new 0 0 289.864 41.994;" xml:space="preserve">
<defs>
</defs>
<g>
	<g>
		<path d="M0,0.397h7.102l13.528,33.03l5.411-13.979L18.149,0.397h7.103l12.964,33.03l13.415-33.03h6.989L41.034,41.431h-5.862
			l-5.749-13.979l-5.975,13.979h-5.862L0,0.397z"/>
		<path d="M49.774,29.706c0-6.764,5.861-12.287,12.626-12.287c7.327,0,12.175,4.622,12.626,12.287v2.143H55.975
			c0.789,2.818,3.269,4.734,6.426,4.734c2.028,0,3.156-0.563,4.847-2.142l3.833,3.945c-2.254,2.255-5.298,3.607-8.68,3.607
			C55.072,41.994,49.774,37.034,49.774,29.706z M68.826,27.001c-0.902-2.705-3.157-4.51-6.426-4.51c-3.157,0-5.411,1.917-6.313,4.51
			H68.826z"/>
		<path d="M73.562,29.706c0-6.764,5.861-12.287,12.626-12.287c7.327,0,12.626,4.96,12.626,12.287v11.725h-6.2v-2.029
			c-1.466,1.578-4.059,2.593-6.99,2.593C78.521,41.994,73.562,37.034,73.562,29.706z M92.5,29.706c0-3.72-2.593-6.425-6.312-6.425
			c-3.607,0-6.313,2.705-6.313,6.425c0,3.607,2.706,6.426,6.313,6.426C89.907,36.132,92.5,33.314,92.5,29.706z"/>
		<path d="M101.914,23.845h-3.156v-5.862h3.156V0.397h6.313v17.586h3.156v5.862h-3.156v17.586h-6.313V23.845z"/>
		<path d="M113.019,0.397h6.312v19.615c1.354-1.578,3.946-2.593,6.877-2.593c7.102,0,12.062,4.96,12.062,12.287v11.725h-6.313
			V29.706c0-3.72-2.593-6.425-6.312-6.425c-3.607,0-6.313,2.705-6.313,6.425v11.725h-6.312V0.397z"/>
		<path d="M140.076,29.706c0-6.764,5.861-12.287,12.626-12.287c7.327,0,12.175,4.622,12.626,12.287v2.143h-19.052
			c0.789,2.818,3.269,4.734,6.426,4.734c2.029,0,3.156-0.563,4.847-2.142l3.833,3.945c-2.254,2.255-5.298,3.607-8.68,3.607
			C145.374,41.994,140.076,37.034,140.076,29.706z M159.128,27.001c-0.902-2.705-3.157-4.51-6.426-4.51
			c-3.157,0-5.411,1.917-6.313,4.51H159.128z"/>
		<path d="M167.02,26.775c0-5.186,3.72-8.793,8.793-8.793h2.255v5.862h-1.804c-1.691,0-2.931,1.127-2.931,2.931v14.655h-6.313
			V26.775z"/>
		<path d="M175.193,17.982h5.975l6.312,17.022l3.833-10.484l-2.479-6.538h5.637l5.636,17.022l6.313-17.022h5.975l-9.356,23.448
			h-5.411l-3.721-10.259l-3.833,10.259h-5.41L175.193,17.982z"/>
		<path d="M210.48,29.706c0-6.764,5.861-12.287,12.626-12.287c7.327,0,12.175,4.622,12.626,12.287v2.143h-19.052
			c0.789,2.818,3.269,4.734,6.426,4.734c2.029,0,3.156-0.563,4.847-2.142l3.833,3.945c-2.254,2.255-5.298,3.607-8.68,3.607
			C215.778,41.994,210.48,37.034,210.48,29.706z M229.532,27.001c-0.902-2.705-3.157-4.51-6.426-4.51
			c-3.157,0-5.411,1.917-6.313,4.51H229.532z"/>
		<path d="M235.396,29.706c0-6.764,5.861-12.287,12.626-12.287c7.327,0,12.626,4.96,12.626,12.287v11.725h-6.2v-2.029
			c-1.466,1.578-4.059,2.593-6.99,2.593C240.355,41.994,235.396,37.034,235.396,29.706z M254.334,29.706
			c0-3.72-2.593-6.425-6.312-6.425c-3.607,0-6.313,2.705-6.313,6.425c0,3.607,2.706,6.426,6.313,6.426
			C251.741,36.132,254.334,33.314,254.334,29.706z"/>
		<path d="M262.621,26.775c0-5.186,3.72-8.793,8.793-8.793h2.255v5.862h-1.804c-1.691,0-2.931,1.127-2.931,2.931v14.655h-6.313
			V26.775z"/>
	</g>
	<path d="M281.614,16.5c-4.549,0-8.25-3.701-8.25-8.25S277.065,0,281.614,0s8.25,3.701,8.25,8.25S286.163,16.5,281.614,16.5z
		 M281.614,5c-1.792,0-3.25,1.458-3.25,3.25s1.458,3.25,3.25,3.25s3.25-1.458,3.25-3.25S283.406,5,281.614,5z"/>
</g>
</svg>