<!-- Generator: Adobe Illustrator 22.1.0, SVG Export Plug-In  -->
<svg version="1.1"
	 xmlns="http://www.w3.org/2000/svg" xmlns:xlink="http://www.w3.org/1999/xlink" xmlns:a="http://ns.adobe.com/AdobeSVGViewerExtensions/3.0/"
	 x="0px" y="0px" width="112.524px" height="112.558px" viewBox="0 0 112.524 112.558"
	 style="enable-background:new 0 0 112.524 112.558;" xml:space="preserve">
<style type="text/css">
	.st0{fill:none;stroke:#FFFFFF;stroke-width:4;stroke-miterlimit:10;}
	.st1{fill:none;stroke:#FFFFFF;stroke-width:4;stroke-linecap:round;stroke-miterlimit:10;}
</style>
<defs>
</defs>
<g>
	<g>
		<path class="st0" d="M31.621,59.123c6.484,5.961,15.136,9.601,24.639,9.601c9.502,0,18.154-3.64,24.639-9.601"/>
	</g>
	<path class="st0" d="M65.25,11.039c25.13,4.25,44.67,26.02,45.26,52.24c0.45,19.79-9.7,37.25-25.18,47.09
		c-0.78,0.5-1.8-0.05-1.8-0.97l0.07-21.72l13.41,2l6.94-21.93l-21.52-8.21l-1.53-0.42l-7.41-2.04c-4.88,3.4-10.82,5.4-17.23,5.4
		c-6.4,0-12.34-2-17.22-5.4l-7.42,2.04l-1.52,0.42l-21.52,8.21l6.93,21.93l13.42-2l0.05,20.95c0,1.25-1.39,2.02-2.43,1.33
		C11.76,100.259,2,83.539,2,64.539c0-26.91,19.58-49.25,45.28-53.51"/>
	<path class="st0" d="M56.26,2.613C70.479,14.565,76.043,23.834,76.043,34.76S67.186,54.543,56.26,54.543
		S36.477,45.686,36.477,34.76S42.041,14.565,56.26,2.613z"/>
	<path class="st1" d="M45.393,32.214c-1.497,4.953,0.636,10.44,5.366,12.996"/>
</g>
</svg>